PathFileType	4	(X/Y/Z)	C:/Users/opensim2020/Desktop/walking_exp_matlab/subject06_walking23_straight_03.trc																																																																																																																																					
DataRate	CameraRate	NumFrames	NumMarkers	Units	OrigDataRate	OrigDataStartFrame	OrigNumFrames																																																																																																																																	
100	100	5	45	mm	100	1775	94																																																																																																																																	
Frame#	Time	LFHD			RFHD			LBHD			RBHD			C7			T10			CLAV			STRN			RBAK			LSHO			LUPA			LELB			LFRM			LWRA			LWRB			LFIN			RSHO			RUPA			RELB			RFRM			RWRA			RWRB			RFIN			LASI			RASI			LPSI			RPSI			LTHI			LKNE			LTIB			LANK			LHEE			LTOE			RTHI			RKNE			RTIB			RANK			RHEE			RTOE			*39			*40			*41			*42			*43			*44		
		X1	Y1	Z1	X2	Y2	Z2	X3	Y3	Z3	X4	Y4	Z4	X5	Y5	Z5	X6	Y6	Z6	X7	Y7	Z7	X8	Y8	Z8	X9	Y9	Z9	X10	Y10	Z10	X11	Y11	Z11	X12	Y12	Z12	X13	Y13	Z13	X14	Y14	Z14	X15	Y15	Z15	X16	Y16	Z16	X17	Y17	Z17	X18	Y18	Z18	X19	Y19	Z19	X20	Y20	Z20	X21	Y21	Z21	X22	Y22	Z22	X23	Y23	Z23	X24	Y24	Z24	X25	Y25	Z25	X26	Y26	Z26	X27	Y27	Z27	X28	Y28	Z28	X29	Y29	Z29	X30	Y30	Z30	X31	Y31	Z31	X32	Y32	Z32	X33	Y33	Z33	X34	Y34	Z34	X35	Y35	Z35	X36	Y36	Z36	X37	Y37	Z37	X38	Y38	Z38	X39	Y39	Z39	X40	Y40	Z40	X41	Y41	Z41	X42	Y42	Z42	X43	Y43	Z43	X44	Y44	Z44	X45	Y45	Z45
																																																																																																																																								
36	0.35	-164.27879	1662.23535	1366.59924	-159.67252	1651.73596	1498.14685	-298.1499	1609.94763	1371.64319	-292.17712	1604.50842	1501.05005	-298.4754	1453.64258	1425.90015	-355.59164	1130.14966	1434.66016	-191.39648	1371.21106	1425.13025	-163.62585	1193.66443	1416.03552	-378.54257	1290.2655	1504.33752	-245.14496	1407.18091	1264.1178	-253.84219	1205.23376	1193.02893	-255.61378	1091.76147	1184.34497	-185.00681	958.59924	1174.31348	-86.58525	883.5907	1228.96436	-138.13327	850.92041	1191.54553	-69.17577	792.51355	1203.45654	-233.31213	1403.59326	1585.87036	-293.40125	1215.52258	1679.4342	-300.30463	1094.33496	1697.30957	-288.55597	975.45874	1717.49011	-234.20296	834.16034	1684.75684	-284.06235	838.76385	1728.62927	-250.5489	761.27679	1729.20056	-190.66747	955.93817	1325.62097	-180.57111	974.8446	1544.59656	-348.17505	986.03687	1361.1228	-332.77402	1001.67664	1526.93311	-223.57678	637.66638	1280.09106	-188.2717	479.00861	1297.48315	-375.46103	323.6438	1303.07397	-509.18433	216.39403	1338.19287	-545.78986	236.52278	1384.96252	-448.4017	84.99039	1340.86462	-198.34694	642.6651	1604.49622	-173.23532	520.5545	1573.07996	-220.17058	255.20024	1558.52698	-235.75467	72.86285	1500.79932	-274.49429	50.77491	1454.39185	-82.31629	38.43325	1498.25635	-261.79419	1702.20178	1429.36365	NaN	NaN	NaN	NaN	NaN	NaN	NaN	NaN	NaN	NaN	NaN	NaN	NaN	NaN	NaN
37	0.36	-150.4964	1663.77014	1366.78357	-145.64146	1653.48706	1498.40308	-284.49979	1612.1095	1372.16272	-278.3013	1606.86133	1501.42566	-285.31628	1455.37378	1426.953	-342.39041	1132.19495	1435.93018	-178.31383	1373.15576	1425.88086	-150.34682	1195.65967	1417.00806	-364.92325	1292.34888	1506.28992	-232.99823	1409.02661	1265.07288	-242.73582	1207.13684	1194.35425	-246.98274	1093.79529	1185.76733	-181.13385	957.8855	1174.22241	-85.85703	877.79755	1227.36926	-139.13385	847.93384	1190.10095	-72.86493	786.35956	1200.51367	-219.57024	1405.93311	1586.54089	-276.9953	1217.33398	1680.69641	-282.05237	1096.14722	1698.57104	-266.75494	977.71283	1718.57971	-207.88995	838.38861	1685.07263	-257.76169	841.41724	1729.22144	-221.40604	764.9837	1729.62524	-176.41765	958.46979	1327.05298	-167.96538	976.42322	1546.17578	-334.3634	988.37762	1361.46631	-319.78604	1003.44659	1527.36853	-203.83813	641.20294	1280.57361	-164.30135	483.50003	1298.4574	-346.10327	322.33984	1304.41455	-475.92737	209.94244	1339.4906	-513.70258	227.72771	1386.47266	-407.17621	83.05771	1340.94934	-190.46887	642.651	1604.28101	-167.73122	520.164	1573.30774	-219.04774	255.51382	1558.4082	-235.67776	73.10384	1500.60205	-274.52362	51.28989	1454.17444	-82.33692	38.41369	1498.51819	-247.69925	1704.27905	1429.68872	NaN	NaN	NaN	NaN	NaN	NaN	NaN	NaN	NaN	NaN	NaN	NaN	NaN	NaN	NaN
38	0.37	-136.76451	1665.07959	1366.90161	-131.71573	1655.00647	1498.52026	-271.05542	1613.92297	1372.71985	-264.52377	1608.89282	1501.92285	-271.97162	1456.87439	1427.86182	-329.10803	1133.87891	1437.16528	-165.24985	1374.81384	1426.49719	-137.14743	1197.36401	1418.03455	-351.38138	1294.09961	1508.16138	-220.70998	1410.63269	1265.91907	-231.95132	1208.79126	1195.46753	-237.88895	1095.66089	1187.03552	-177.75456	956.90369	1174.02246	-85.55753	872.08014	1225.55115	-140.72765	845.24304	1188.55933	-76.94735	780.45966	1197.47778	-205.93617	1408.00989	1587.20227	-260.92896	1219.00049	1682.03003	-264.11438	1097.77368	1699.88049	-245.16779	979.93341	1719.57178	-181.09436	843.10712	1685.58252	-231.31549	843.92682	1729.59143	-192.40074	768.90894	1729.8175	-162.52599	960.8642	1328.71606	-155.36873	977.38751	1547.46558	-320.57794	990.45898	1361.83765	-307.07895	1004.92841	1527.90857	-184.2037	644.55981	1280.86926	-140.89543	487.96848	1299.4425	-316.84518	320.4057	1305.7738	-441.80884	202.36682	1340.90454	-480.66095	217.82785	1388.03015	-365.20581	80.61675	1341.06445	-182.48647	642.46729	1604.59204	-162.32385	519.52106	1573.64453	-217.18886	255.67401	1558.35156	-235.4884	73.38252	1500.42505	-274.58273	51.84264	1454.03174	-82.33016	38.40369	1498.72473	-233.73822	1706.07373	1429.95984	NaN	NaN	NaN	NaN	NaN	NaN	NaN	NaN	NaN	NaN	NaN	NaN	NaN	NaN	NaN
39	0.38	-123.17894	1666.06128	1366.92676	-117.87132	1656.29236	1498.62512	-257.58643	1615.37451	1373.11035	-250.84343	1610.62708	1502.34546	-258.73529	1458.10498	1428.72009	-315.95837	1135.32556	1438.36548	-152.2486	1376.17712	1427.17358	-123.9691	1198.78491	1419.09717	-338.05997	1295.53955	1509.87317	-208.31244	1411.80933	1266.74329	-221.48859	1210.08447	1196.20471	-229.06979	1097.14697	1188.04773	-174.6122	955.90796	1173.65015	-85.60325	866.42926	1223.58264	-142.0591	842.28937	1187.05444	-81.47921	774.82819	1194.42493	-192.41948	1409.81079	1587.89819	-245.15617	1220.51001	1683.34106	-246.51921	1099.25439	1701.26685	-223.80426	982.09088	1720.54871	-154.66083	847.98914	1685.94934	-205.12723	846.85107	1729.82141	-163.47878	773.1875	1729.74561	-148.64369	962.71606	1330.08997	-142.74712	977.91803	1548.73425	-306.73312	992.13129	1362.2207	-293.96652	1005.97729	1528.43408	-164.87517	647.81409	1281.00061	-117.96655	492.32809	1300.43286	-287.50446	317.90277	1307.23376	-406.82162	193.93707	1342.5188	-446.49481	207.06445	1389.74146	-323.25076	77.22046	1342.0144	-174.96187	642.06024	1604.45789	-156.74812	518.85181	1574.04456	-214.76189	255.74374	1558.34937	-235.36847	73.68353	1500.06909	-274.45435	52.31138	1453.7959	-82.31649	38.32552	1498.85132	-219.90402	1707.52686	1430.08838	NaN	NaN	NaN	NaN	NaN	NaN	NaN	NaN	NaN	NaN	NaN	NaN	NaN	NaN	NaN
40	0.39	-109.54516	1666.74683	1366.91162	-104.06622	1657.31873	1498.65991	-244.06979	1616.43005	1373.43799	-237.29477	1611.99268	1502.87805	-245.40056	1459.22058	1429.57361	-302.67834	1136.29517	1439.51929	-139.22821	1377.21729	1427.86853	-110.74251	1199.91638	1420.22815	-324.5863	1296.61621	1511.46191	-195.80025	1412.57947	1267.52344	-211.15326	1211.00745	1197.00537	-220.14355	1098.30554	1188.83508	-171.56651	954.81531	1173.26855	-85.98431	860.72437	1221.29626	-144.25891	839.82837	1185.66272	-86.33629	769.51935	1191.45544	-178.97972	1411.23926	1588.55969	-229.64674	1221.7561	1684.62854	-229.11301	1100.53564	1702.66479	-202.8331	984.19696	1721.39685	-128.92361	852.9632	1685.84656	-178.89755	849.62848	1729.86523	-134.49004	777.92444	1729.6095	-134.65829	964.09851	1331.29248	-130.17229	978.08405	1550.01538	-292.93307	993.54358	1362.64233	-281.24094	1006.67999	1529.0542	-145.68803	650.8783	1281.03101	-95.54401	496.49118	1301.3927	-258.08508	314.75739	1308.71069	-371.0181	184.73247	1344.29236	-411.42154	195.71301	1391.76843	-280.33939	73.81014	1342.52441	-167.50632	641.91229	1604.3894	-151.00116	518.04016	1574.35181	-212.03305	255.72099	1558.32715	-234.97954	73.99956	1499.8623	-275.03217	53.42887	1453.89209	-82.21525	38.27349	1499.0376	-206.03732	1708.64514	1430.09619	NaN	NaN	NaN	NaN	NaN	NaN	NaN	NaN	NaN	NaN	NaN	NaN	NaN	NaN	NaN
